<svg width="400" height="400" viewBox="0 0 400 400" fill="none" xmlns="http://www.w3.org/2000/svg">
<g clip-path="url(#clip0_1_2)">
<path d="M10 181.786C10 154.917 31.8613 133.071 58.75 133.071C59.1309 133.071 59.5879 133.071 59.9687 133.071C65.6055 105.289 90.209 84.3571 119.688 84.3571C131.113 84.3571 141.777 87.4779 150.842 92.8821C160.973 73.3964 181.463 60 205 60C228.537 60 249.027 73.3964 259.158 92.8821C268.223 87.4779 278.887 84.3571 290.312 84.3571C319.791 84.3571 344.395 105.289 350.031 133.071C350.412 133.071 350.869 133.071 351.25 133.071C378.139 133.071 400 154.917 400 181.786C400 190.691 397.639 198.988 393.449 206.143H16.5508C12.3613 198.988 10 190.691 10 181.786ZM10 251.356C10 239.862 19.3691 230.5 30.8711 230.5H379.129C390.631 230.5 400 239.862 400 251.356C400 305.018 366.18 350.84 318.725 368.651L317.354 379.688C315.83 391.866 305.471 401 293.131 401H116.793C104.529 401 94.0938 391.866 92.5703 379.688L91.1992 368.727C43.8203 350.84 10 305.018 10 251.356Z" fill="black"/>
<path d="M63.7143 19.4375C63.7143 15.3582 60.7138 12.0625 57 12.0625C53.2862 12.0625 50.2857 15.3582 50.2857 19.4375V52.625H20.0714C16.3576 52.625 13.3571 55.9207 13.3571 60C13.3571 64.0793 16.3576 67.375 20.0714 67.375H50.2857V100.562C50.2857 104.642 53.2862 107.938 57 107.938C60.7138 107.938 63.7143 104.642 63.7143 100.562V67.375H93.9286C97.6424 67.375 100.643 64.0793 100.643 60C100.643 55.9207 97.6424 52.625 93.9286 52.625H63.7143V19.4375Z" fill="black"/>
</g>
<defs>
<clipPath id="clip0_1_2">
<rect width="400" height="400" fill="white"/>
</clipPath>
</defs>
</svg>
