<svg width="400" height="400" viewBox="0 0 400 400" fill="none" xmlns="http://www.w3.org/2000/svg">
<path d="M168.75 50C158.359 50 150 58.3594 150 68.75C150 79.1406 158.359 87.5 168.75 87.5H181.25V113.516C93.4375 122.813 25 197.188 25 287.5H375C375 197.188 306.563 122.813 218.75 113.516V87.5H231.25C241.641 87.5 250 79.1406 250 68.75C250 58.3594 241.641 50 231.25 50H200H168.75ZM18.75 312.5C8.35937 312.5 0 320.859 0 331.25C0 341.641 8.35937 350 18.75 350H381.25C391.641 350 400 341.641 400 331.25C400 320.859 391.641 312.5 381.25 312.5H18.75Z" fill="black"/>
</svg>
