<svg width="400" height="400" viewBox="0 0 400 400" fill="none" xmlns="http://www.w3.org/2000/svg">
<g clip-path="url(#clip0_3_10)">
<path d="M156 216.75C156 199.927 169.677 186.25 186.5 186.25H369.5C386.323 186.25 400 199.927 400 216.75V369.25C400 386.073 386.323 399.75 369.5 399.75H186.5C169.677 399.75 156 386.073 156 369.25V216.75ZM186.5 216.75V247.25H217V216.75H186.5ZM369.5 216.75H247.5V247.25H369.5V216.75ZM186.5 277.75V308.25H217V277.75H186.5ZM369.5 277.75H247.5V308.25H369.5V277.75ZM186.5 338.75V369.25H217V338.75H186.5ZM369.5 338.75H247.5V369.25H369.5V338.75Z" fill="black"/>
</g>
<path fill-rule="evenodd" clip-rule="evenodd" d="M42.5 64.9286C19.0586 64.9286 0 84.3395 0 108.214C0 116.127 2.05859 123.5 5.71094 129.857H334.289C337.941 123.5 340 116.127 340 108.214C340 84.3395 320.941 64.9286 297.5 64.9286H296.438C291.523 40.2422 270.074 21.6429 244.375 21.6429C234.414 21.6429 225.117 24.4158 217.215 29.2179C208.383 11.9036 190.52 0 170 0C149.48 0 131.617 11.9036 122.785 29.2179C114.883 24.4158 105.586 21.6429 95.625 21.6429C69.9258 21.6429 48.4766 40.2422 43.5625 64.9286H42.5ZM18.1953 151.5C8.16797 151.5 0 159.819 0 170.032C0 217.714 29.4844 258.429 70.7891 274.323L71.9844 284.062C73.3125 294.884 82.4102 303 93.1016 303H153V214.612C153 197.318 167.014 183.257 184.25 183.257H339.236C339.74 178.92 340 174.506 340 170.032C340 159.819 331.832 151.5 321.805 151.5H18.1953Z" fill="black"/>
<defs>
<clipPath id="clip0_3_10">
<rect width="244" height="214" fill="white" transform="translate(156 186)"/>
</clipPath>
</defs>
</svg>
