<svg width="400" height="400" viewBox="0 0 400 400" fill="none" xmlns="http://www.w3.org/2000/svg">
<g clip-path="url(#clip0_1_6)">
<path d="M118.828 29.8438C126.563 36.7969 127.187 48.5938 120.234 56.3281L63.9844 118.828C60.5469 122.656 55.7031 124.922 50.5469 125C45.3906 125.078 40.4687 123.125 36.7969 119.531L5.46875 88.2813C-1.79688 80.9375 -1.79688 69.0625 5.46875 61.7188C12.7344 54.375 24.6875 54.375 31.9531 61.7188L49.2187 78.9844L92.2656 31.1719C99.2188 23.4375 111.016 22.8125 118.75 29.7656L118.828 29.8438ZM118.828 154.844C126.563 161.797 127.187 173.594 120.234 181.328L63.9844 243.828C60.5469 247.656 55.7031 249.922 50.5469 250C45.3906 250.078 40.4687 248.125 36.7969 244.531L5.46875 213.281C-1.875 205.938 -1.875 194.063 5.46875 186.797C12.8125 179.531 24.6875 179.453 31.9531 186.797L49.2187 204.063L92.2656 156.25C99.2188 148.516 111.016 147.891 118.75 154.844H118.828ZM175 75C175 61.1719 186.172 50 200 50H375C388.828 50 400 61.1719 400 75C400 88.8281 388.828 100 375 100H200C186.172 100 175 88.8281 175 75ZM175 200C175 186.172 186.172 175 200 175H375C388.828 175 400 186.172 400 200C400 213.828 388.828 225 375 225H200C186.172 225 175 213.828 175 200ZM125 325C125 311.172 136.172 300 150 300H375C388.828 300 400 311.172 400 325C400 338.828 388.828 350 375 350H150C136.172 350 125 338.828 125 325ZM37.5 287.5C47.4456 287.5 56.9839 291.451 64.0165 298.483C71.0491 305.516 75 315.054 75 325C75 334.946 71.0491 344.484 64.0165 351.517C56.9839 358.549 47.4456 362.5 37.5 362.5C27.5544 362.5 18.0161 358.549 10.9835 351.517C3.95088 344.484 -2.23517e-07 334.946 -2.23517e-07 325C-2.23517e-07 315.054 3.95088 305.516 10.9835 298.483C18.0161 291.451 27.5544 287.5 37.5 287.5Z" fill="black"/>
</g>
<defs>
<clipPath id="clip0_1_6">
<rect width="400" height="400" fill="white"/>
</clipPath>
</defs>
</svg>
