<svg width="400" height="400" viewBox="0 0 400 400" fill="none" xmlns="http://www.w3.org/2000/svg">
<g clip-path="url(#clip0_4_50)">
<path d="M159 192.078C159 186.493 163.477 182 169.042 182H188.079C197.284 182 205.443 187.375 209.25 195.438H381.214C392.218 195.438 400.251 205.936 397.364 216.602L380.21 280.556C376.653 293.741 364.729 302.938 351.131 302.938H230.421L232.681 314.905C233.601 319.65 237.743 323.094 242.555 323.094H363.181C368.745 323.094 373.222 327.587 373.222 333.172C373.222 338.757 368.745 343.25 363.181 343.25H242.555C228.078 343.25 215.652 332.92 212.974 318.685L191.384 204.886C191.091 203.29 189.711 202.156 188.079 202.156H169.042C163.477 202.156 159 197.663 159 192.078ZM212.556 376.844C212.556 374.197 213.075 371.576 214.084 369.13C215.094 366.685 216.573 364.463 218.438 362.591C220.303 360.719 222.517 359.235 224.953 358.222C227.39 357.209 230.002 356.688 232.639 356.688C235.276 356.688 237.888 357.209 240.324 358.222C242.761 359.235 244.975 360.719 246.84 362.591C248.705 364.463 250.184 366.685 251.193 369.13C252.203 371.576 252.722 374.197 252.722 376.844C252.722 379.491 252.203 382.112 251.193 384.557C250.184 387.003 248.705 389.225 246.84 391.096C244.975 392.968 242.761 394.453 240.324 395.466C237.888 396.479 235.276 397 232.639 397C230.002 397 227.39 396.479 224.953 395.466C222.517 394.453 220.303 392.968 218.438 391.096C216.573 389.225 215.094 387.003 214.084 384.557C213.075 382.112 212.556 379.491 212.556 376.844ZM353.139 356.688C358.465 356.688 363.574 358.811 367.34 362.591C371.106 366.371 373.222 371.498 373.222 376.844C373.222 382.19 371.106 387.316 367.34 391.096C363.574 394.876 358.465 397 353.139 397C347.812 397 342.704 394.876 338.938 391.096C335.171 387.316 333.056 382.19 333.056 376.844C333.056 371.498 335.171 366.371 338.938 362.591C342.704 358.811 347.812 356.688 353.139 356.688Z" fill="black"/>
<path fill-rule="evenodd" clip-rule="evenodd" d="M0 45.1465C0 20.0276 19.3389 -0.394867 43.125 -0.394867H301.875C325.661 -0.394867 345 20.0276 345 45.1465V192H214.5C211.811 186.301 208.293 182.163 203.338 180.062H303.25C313.621 180.062 322 172.214 322 162.5C322 152.786 313.621 144.938 303.25 144.938H172C161.629 144.938 153.25 152.786 153.25 162.5C153.25 169.879 158.085 176.182 164.956 178.785C159.612 180.222 154 186.801 154 192C154 197.871 162.655 207.5 168.5 207.5H184C185.714 207.5 187.164 208.692 187.472 210.369L191.699 232.75H134.5C124.129 232.75 115.75 240.598 115.75 250.312C115.75 260.027 124.129 267.875 134.5 267.875H198.333L207.875 318.395H43.125C19.3389 318.395 0 297.972 0 272.853V45.1465ZM240 313H322.227C316.162 316.442 309.231 318.395 301.875 318.395H240.555L240 313ZM112.176 61.5705C117.391 56.1371 116.922 47.8498 111.121 42.9652L111.063 42.9104C105.262 38.0258 96.4143 38.4648 91.1994 43.8982L58.9143 77.4865L45.965 65.3574C40.5158 60.1984 31.551 60.1984 26.1018 65.3574C20.6525 70.5164 20.6525 78.8586 26.1018 84.0176L49.5979 105.971C52.3518 108.495 56.0432 109.867 59.9104 109.812C63.7775 109.758 67.4104 108.166 69.9885 105.477L112.176 61.5705ZM112.176 149.383C117.391 143.95 116.922 135.662 111.121 130.778H111.063C105.262 125.893 96.4143 126.332 91.1994 131.766L58.9143 165.354L45.965 153.225C40.5158 148.066 31.6096 148.121 26.1018 153.225C20.5939 158.329 20.5939 166.671 26.1018 171.83L49.5979 193.783C52.3518 196.308 56.0432 197.68 59.9104 197.625C63.7775 197.57 67.4104 195.979 69.9885 193.289L112.176 149.383ZM172 57.125C161.629 57.125 153.25 64.9732 153.25 74.6875C153.25 84.4018 161.629 92.25 172 92.25H303.25C313.621 92.25 322 84.4018 322 74.6875C322 64.9732 313.621 57.125 303.25 57.125H172ZM70.0126 231.685C64.7381 226.744 57.5844 223.969 50.1252 223.969C42.666 223.969 35.5123 226.744 30.2378 231.685C24.9634 236.625 22.0002 243.326 22.0002 250.312C22.0002 257.299 24.9634 264 30.2378 268.94C35.5123 273.881 42.666 276.656 50.1252 276.656C57.5844 276.656 64.7381 273.881 70.0126 268.94C75.287 264 78.2502 257.299 78.2502 250.312C78.2502 243.326 75.287 236.625 70.0126 231.685Z" fill="black"/>
</g>
<defs>
<clipPath id="clip0_4_50">
<rect width="400" height="400" fill="white"/>
</clipPath>
</defs>
</svg>
