<svg width="400" height="400" viewBox="0 0 400 400" fill="none" xmlns="http://www.w3.org/2000/svg">
<g clip-path="url(#clip0_5_15)">
<path d="M224.154 201.123L242.682 219.556L192.917 269.068L174.388 250.635C164.818 241.113 164.818 225.688 174.388 216.167L189.471 201.123C199.042 191.601 214.546 191.601 224.116 201.123H224.154ZM251.334 228.164L340.567 316.98C344.549 320.941 347.458 325.854 349.066 331.224L362.617 377.042C363.574 380.279 362.694 383.745 360.321 386.106C357.947 388.468 354.463 389.344 351.248 388.429L305.196 374.947C299.798 373.347 294.86 370.453 290.878 366.492L201.568 277.676L251.334 228.164Z" fill="black"/>
</g>
<path fill-rule="evenodd" clip-rule="evenodd" d="M316.493 51.9754C316.493 46.4787 312.141 41.9815 306.821 41.9815H74.6887C69.369 41.9815 65.0165 46.4787 65.0165 51.9754V251.852V252.039L67.7368 248.167L116.098 178.21C118.818 174.212 123.171 171.901 127.886 171.901C132.601 171.901 136.953 174.212 139.674 178.148L158.111 204.819L208.286 137.735C211.066 134.05 215.298 131.926 219.771 131.926C224.245 131.926 228.537 134.05 231.257 137.735L313.471 247.667L316.493 251.727V51.9754ZM36 51.9754C36 29.9264 53.3495 12 74.6887 12H306.821C328.16 12 345.51 29.9264 345.51 51.9754V251.852C345.51 269.49 334.408 284.489 319.043 289.785L222.838 194.07C212.506 183.785 197.083 186.242 186.75 196.527L170.467 212.778C160.135 223.063 157.776 241.181 168.108 251.466L209.254 291.827H74.6887C53.3495 291.827 36 273.901 36 251.852V51.9754ZM134.154 129.644C130.633 131.151 126.86 131.926 123.05 131.926C119.239 131.926 115.466 131.151 111.945 129.644C108.425 128.137 105.226 125.929 102.532 123.145C99.8374 120.361 97.7 117.055 96.2418 113.418C94.7836 109.78 94.0331 105.882 94.0331 101.945C94.0331 98.0073 94.7836 94.1086 96.2418 90.4711C97.7 86.8336 99.8374 83.5285 102.532 80.7444C105.226 77.9604 108.425 75.7519 111.945 74.2452C115.466 72.7385 119.239 71.963 123.05 71.963C126.86 71.963 130.633 72.7385 134.154 74.2452C137.674 75.7519 140.873 77.9604 143.567 80.7444C146.262 83.5285 148.399 86.8336 149.857 90.4711C151.316 94.1086 152.066 98.0073 152.066 101.945C152.066 105.882 151.316 109.78 149.857 113.418C148.399 117.055 146.262 120.361 143.567 123.145C140.873 125.929 137.674 128.137 134.154 129.644Z" fill="black"/>
<defs>
<clipPath id="clip0_5_15">
<rect width="196" height="195" fill="white" transform="matrix(-1 0 0 1 363 193.772)"/>
</clipPath>
</defs>
</svg>
