<svg width="400" height="400" viewBox="0 0 400 400" fill="none" xmlns="http://www.w3.org/2000/svg">
<g clip-path="url(#clip0_4_31)">
<path d="M320 400C297.714 400 278.81 392.208 263.286 376.624C247.762 361.041 240 342.063 240 319.691C240 300.57 245.857 283.696 257.571 269.068C269.286 254.44 284.381 245.119 302.857 241.103C297.905 240.147 293.143 238.761 288.571 236.944C284 235.128 279.905 232.403 276.286 228.77C270.952 223.225 267.381 216.819 265.571 209.553C263.762 202.287 262.857 194.83 262.857 187.182V182.019C279.238 181.637 293.333 187.038 305.143 198.224C316.952 209.41 322.762 223.129 322.571 239.382C325.238 231.16 329 223.512 333.857 216.437C338.714 209.362 344.19 202.765 350.286 196.647C352 194.926 354 194.065 356.286 194.065C358.571 194.065 360.571 194.926 362.286 196.647C364 198.368 364.857 200.375 364.857 202.67C364.857 204.964 364 206.972 362.286 208.693C357.524 213.473 353.238 218.636 349.429 224.181C345.619 229.726 342.381 235.558 339.714 241.677C357.619 246.266 372.143 255.779 383.286 270.215C394.429 284.652 400 301.144 400 319.691C400 342.063 392.238 361.041 376.714 376.624C361.19 392.208 342.286 400 320 400Z" fill="black"/>
</g>
<path fill-rule="evenodd" clip-rule="evenodd" d="M43.5 7.75C19.507 7.75 0 27.257 0 51.25V268.75C0 292.743 19.507 312.25 43.5 312.25H229.939C232.2 296.601 238.55 282.469 248.988 269.855C249.295 269.483 249.604 269.115 249.915 268.75H130.5V225.25H270.038C264.102 219.201 260.119 212.229 258.087 204.334C256.196 196.984 255.174 189.456 255.02 181.75H130.5V138.25H304.5V181.75H288.951C293.951 184.427 298.667 187.797 303.1 191.861C316.533 204.176 323.142 219.28 322.925 237.173C325.958 228.121 330.237 219.701 335.762 211.912C339.517 206.62 343.596 201.571 348 196.764V51.25C348 27.257 328.493 7.75 304.5 7.75H43.5ZM348 228.905C345.946 232.408 344.088 236.006 342.425 239.699C344.316 240.169 346.175 240.685 348 241.247V228.905ZM43.5 94.75V51.25H87V94.75H43.5ZM130.5 51.25H304.5V94.75H130.5V51.25ZM43.5 181.75V138.25H87V181.75H43.5ZM43.5 268.75V225.25H87V268.75H43.5Z" fill="black"/>
<defs>
<clipPath id="clip0_4_31">
<rect width="160" height="218" fill="white" transform="translate(240 182)"/>
</clipPath>
</defs>
</svg>
